<svg width="481" height="168" viewBox="0 0 481 168" fill="none" xmlns="http://www.w3.org/2000/svg">
<g clip-path="url(#clip0_1_305)">
<path d="M89.2303 30.2572C90.3939 30.2572 91.6869 30.2572 92.8505 30.6429L89.2303 37.7143C83.8 37.3286 79.0162 41.7001 78.6283 47.3572C78.3697 53.0143 82.5071 57.9001 88.0667 58.1572H89.2303C91.6869 58.1572 94.0141 57.2572 95.8242 55.7143L99.703 62.5286C96.7293 64.7143 93.1091 66.0001 89.101 66.0001C79.5333 66.2572 71.3879 58.9286 71 48.9001C70.7414 39.0001 77.9818 30.6429 87.6788 30.2572H89.2303Z" fill="#1D1D1B"/>
<path d="M93.1091 45.5571L88.5839 53.2714H97.3758L101.513 60.7286L106.038 53.2714L101.513 45.5571H93.1091Z" fill="#1D1D1B"/>
<path d="M94.2727 42.7287C94.2727 41.443 94.5313 40.2858 95.1778 39.2573C95.8242 38.3573 96.9879 37.3287 97.8929 36.8144L98.5394 36.4287C99.703 35.7858 100.091 35.5287 100.091 34.8858C100.091 34.243 99.1858 33.6001 98.5394 33.6001C97.3757 33.6001 96.3414 34.243 95.8242 35.5287L94.2727 34.1144C94.5313 33.4715 95.1778 32.8287 95.8242 32.1858C96.7293 31.543 97.6343 31.543 98.5394 31.543C99.4444 31.543 100.737 31.9287 101.255 32.443C101.772 33.0858 102.418 33.9858 102.418 34.8858C102.418 36.4287 101.513 37.7144 99.703 38.3573L98.798 39.0001C97.8929 39.643 97.2464 39.9001 96.9879 40.9287H102.418V43.1144C102.418 42.9858 94.2727 42.7287 94.2727 42.7287Z" fill="#1D1D1B"/>
</g>
<path d="M76.205 137.135C74.965 137.135 74.01 136.79 73.34 136.1C72.68 135.4 72.35 134.395 72.35 133.085V126.275H73.655V132.935C73.655 133.495 73.705 133.975 73.805 134.375C73.905 134.765 74.06 135.085 74.27 135.335C74.48 135.585 74.745 135.77 75.065 135.89C75.395 136 75.785 136.055 76.235 136.055C76.665 136.055 77.045 136.005 77.375 135.905C77.715 135.805 78 135.63 78.23 135.38C78.47 135.13 78.65 134.795 78.77 134.375C78.9 133.945 78.965 133.4 78.965 132.74V126.275H80.27V132.92C80.27 134.23 79.935 135.26 79.265 136.01C78.605 136.76 77.585 137.135 76.205 137.135ZM87.2751 137.135C86.5551 137.135 85.9451 137.045 85.4451 136.865C84.9551 136.675 84.5501 136.425 84.2301 136.115C83.9101 135.805 83.6651 135.445 83.4951 135.035C83.3351 134.625 83.2301 134.19 83.1801 133.73H84.4401C84.4801 134.05 84.5501 134.355 84.6501 134.645C84.7501 134.925 84.9051 135.175 85.1151 135.395C85.3251 135.605 85.6001 135.775 85.9401 135.905C86.2901 136.025 86.7351 136.085 87.2751 136.085C87.6151 136.085 87.9351 136.04 88.2351 135.95C88.5351 135.85 88.7951 135.71 89.0151 135.53C89.2351 135.35 89.4051 135.135 89.5251 134.885C89.6551 134.635 89.7201 134.36 89.7201 134.06C89.7201 133.76 89.6801 133.5 89.6001 133.28C89.5201 133.05 89.3801 132.855 89.1801 132.695C88.9901 132.535 88.7251 132.4 88.3851 132.29C88.0551 132.18 87.6351 132.085 87.1251 132.005C86.5651 131.915 86.0601 131.8 85.6101 131.66C85.1701 131.52 84.7951 131.34 84.4851 131.12C84.1751 130.89 83.9401 130.61 83.7801 130.28C83.6201 129.94 83.5401 129.53 83.5401 129.05C83.5401 128.64 83.6251 128.26 83.7951 127.91C83.9651 127.55 84.2001 127.24 84.5001 126.98C84.8101 126.72 85.1751 126.515 85.5951 126.365C86.0151 126.215 86.4801 126.14 86.9901 126.14C88.0701 126.14 88.9251 126.395 89.5551 126.905C90.1951 127.405 90.5701 128.135 90.6801 129.095H89.5101C89.3801 128.415 89.1151 127.93 88.7151 127.64C88.3151 127.34 87.7401 127.19 86.9901 127.19C86.2501 127.19 85.6901 127.355 85.3101 127.685C84.9401 128.005 84.7551 128.42 84.7551 128.93C84.7551 129.19 84.7851 129.425 84.8451 129.635C84.9151 129.835 85.0401 130.01 85.2201 130.16C85.4101 130.31 85.6701 130.445 86.0001 130.565C86.3401 130.675 86.7851 130.77 87.3351 130.85C87.9351 130.94 88.4601 131.06 88.9101 131.21C89.3601 131.36 89.7401 131.555 90.0501 131.795C90.3601 132.035 90.5901 132.33 90.7401 132.68C90.9001 133.03 90.9801 133.46 90.9801 133.97C90.9801 134.42 90.8851 134.84 90.6951 135.23C90.5151 135.61 90.2601 135.945 89.9301 136.235C89.6001 136.515 89.2051 136.735 88.7451 136.895C88.2951 137.055 87.8051 137.135 87.2751 137.135ZM94.1402 126.275H100.395V127.34H95.4452V130.985H99.4352V132.05H95.4452V135.935H100.665V137H94.1402V126.275ZM103.562 126.275H106.787C107.297 126.275 107.777 126.33 108.227 126.44C108.687 126.55 109.087 126.725 109.427 126.965C109.767 127.205 110.037 127.515 110.237 127.895C110.437 128.265 110.537 128.72 110.537 129.26V129.32C110.537 129.76 110.467 130.15 110.327 130.49C110.187 130.82 109.997 131.105 109.757 131.345C109.517 131.575 109.237 131.765 108.917 131.915C108.597 132.065 108.252 132.175 107.882 132.245L111.167 137H109.712L106.517 132.335H104.867V137H103.562V126.275ZM106.877 131.3C107.647 131.3 108.232 131.135 108.632 130.805C109.032 130.475 109.232 129.98 109.232 129.32V129.26C109.232 128.9 109.177 128.595 109.067 128.345C108.957 128.095 108.802 127.895 108.602 127.745C108.402 127.595 108.152 127.49 107.852 127.43C107.562 127.36 107.237 127.325 106.877 127.325H104.867V131.3H106.877ZM117.225 137.135C116.505 137.135 115.895 137.045 115.395 136.865C114.905 136.675 114.5 136.425 114.18 136.115C113.86 135.805 113.615 135.445 113.445 135.035C113.285 134.625 113.18 134.19 113.13 133.73H114.39C114.43 134.05 114.5 134.355 114.6 134.645C114.7 134.925 114.855 135.175 115.065 135.395C115.275 135.605 115.55 135.775 115.89 135.905C116.24 136.025 116.685 136.085 117.225 136.085C117.565 136.085 117.885 136.04 118.185 135.95C118.485 135.85 118.745 135.71 118.965 135.53C119.185 135.35 119.355 135.135 119.475 134.885C119.605 134.635 119.67 134.36 119.67 134.06C119.67 133.76 119.63 133.5 119.55 133.28C119.47 133.05 119.33 132.855 119.13 132.695C118.94 132.535 118.675 132.4 118.335 132.29C118.005 132.18 117.585 132.085 117.075 132.005C116.515 131.915 116.01 131.8 115.56 131.66C115.12 131.52 114.745 131.34 114.435 131.12C114.125 130.89 113.89 130.61 113.73 130.28C113.57 129.94 113.49 129.53 113.49 129.05C113.49 128.64 113.575 128.26 113.745 127.91C113.915 127.55 114.15 127.24 114.45 126.98C114.76 126.72 115.125 126.515 115.545 126.365C115.965 126.215 116.43 126.14 116.94 126.14C118.02 126.14 118.875 126.395 119.505 126.905C120.145 127.405 120.52 128.135 120.63 129.095H119.46C119.33 128.415 119.065 127.93 118.665 127.64C118.265 127.34 117.69 127.19 116.94 127.19C116.2 127.19 115.64 127.355 115.26 127.685C114.89 128.005 114.705 128.42 114.705 128.93C114.705 129.19 114.735 129.425 114.795 129.635C114.865 129.835 114.99 130.01 115.17 130.16C115.36 130.31 115.62 130.445 115.95 130.565C116.29 130.675 116.735 130.77 117.285 130.85C117.885 130.94 118.41 131.06 118.86 131.21C119.31 131.36 119.69 131.555 120 131.795C120.31 132.035 120.54 132.33 120.69 132.68C120.85 133.03 120.93 133.46 120.93 133.97C120.93 134.42 120.835 134.84 120.645 135.23C120.465 135.61 120.21 135.945 119.88 136.235C119.55 136.515 119.155 136.735 118.695 136.895C118.245 137.055 117.755 137.135 117.225 137.135ZM128.81 126.275H130.115V135.935H135.02V137H128.81V126.275ZM142.094 136.055C142.694 136.055 143.229 135.95 143.699 135.74C144.179 135.52 144.584 135.22 144.914 134.84C145.244 134.45 145.499 133.985 145.679 133.445C145.859 132.905 145.949 132.31 145.949 131.66V131.54C145.949 130.94 145.859 130.375 145.679 129.845C145.509 129.315 145.259 128.855 144.929 128.465C144.599 128.075 144.194 127.765 143.714 127.535C143.234 127.305 142.684 127.19 142.064 127.19C141.444 127.19 140.889 127.3 140.399 127.52C139.909 127.73 139.494 128.03 139.154 128.42C138.824 128.81 138.569 129.275 138.389 129.815C138.219 130.345 138.134 130.93 138.134 131.57V131.69C138.134 132.34 138.234 132.935 138.434 133.475C138.644 134.005 138.924 134.465 139.274 134.855C139.634 135.235 140.054 135.53 140.534 135.74C141.014 135.95 141.534 136.055 142.094 136.055ZM142.094 137.135C141.304 137.135 140.579 136.995 139.919 136.715C139.269 136.425 138.709 136.035 138.239 135.545C137.779 135.055 137.419 134.48 137.159 133.82C136.909 133.16 136.784 132.455 136.784 131.705V131.585C136.784 130.825 136.909 130.115 137.159 129.455C137.419 128.785 137.779 128.205 138.239 127.715C138.709 127.225 139.264 126.84 139.904 126.56C140.554 126.28 141.274 126.14 142.064 126.14C142.854 126.14 143.569 126.28 144.209 126.56C144.849 126.84 145.399 127.225 145.859 127.715C146.319 128.205 146.674 128.78 146.924 129.44C147.174 130.1 147.299 130.805 147.299 131.555V131.675C147.299 132.435 147.174 133.145 146.924 133.805C146.674 134.465 146.319 135.045 145.859 135.545C145.409 136.035 144.864 136.425 144.224 136.715C143.584 136.995 142.874 137.135 142.094 137.135ZM149.054 126.275H150.344L153.539 135.74L156.734 126.275H157.964L154.259 137H152.699L149.054 126.275ZM160.694 126.275H166.949V127.34H161.999V130.985H165.989V132.05H161.999V135.935H167.219V137H160.694V126.275ZM178.601 137.135C177.361 137.135 176.406 136.79 175.736 136.1C175.076 135.4 174.746 134.395 174.746 133.085V126.275H176.051V132.935C176.051 133.495 176.101 133.975 176.201 134.375C176.301 134.765 176.456 135.085 176.666 135.335C176.876 135.585 177.141 135.77 177.461 135.89C177.791 136 178.181 136.055 178.631 136.055C179.061 136.055 179.441 136.005 179.771 135.905C180.111 135.805 180.396 135.63 180.626 135.38C180.866 135.13 181.046 134.795 181.166 134.375C181.296 133.945 181.361 133.4 181.361 132.74V126.275H182.666V132.92C182.666 134.23 182.331 135.26 181.661 136.01C181.001 136.76 179.981 137.135 178.601 137.135ZM189.671 137.135C188.951 137.135 188.341 137.045 187.841 136.865C187.351 136.675 186.946 136.425 186.626 136.115C186.306 135.805 186.061 135.445 185.891 135.035C185.731 134.625 185.626 134.19 185.576 133.73H186.836C186.876 134.05 186.946 134.355 187.046 134.645C187.146 134.925 187.301 135.175 187.511 135.395C187.721 135.605 187.996 135.775 188.336 135.905C188.686 136.025 189.131 136.085 189.671 136.085C190.011 136.085 190.331 136.04 190.631 135.95C190.931 135.85 191.191 135.71 191.411 135.53C191.631 135.35 191.801 135.135 191.921 134.885C192.051 134.635 192.116 134.36 192.116 134.06C192.116 133.76 192.076 133.5 191.996 133.28C191.916 133.05 191.776 132.855 191.576 132.695C191.386 132.535 191.121 132.4 190.781 132.29C190.451 132.18 190.031 132.085 189.521 132.005C188.961 131.915 188.456 131.8 188.006 131.66C187.566 131.52 187.191 131.34 186.881 131.12C186.571 130.89 186.336 130.61 186.176 130.28C186.016 129.94 185.936 129.53 185.936 129.05C185.936 128.64 186.021 128.26 186.191 127.91C186.361 127.55 186.596 127.24 186.896 126.98C187.206 126.72 187.571 126.515 187.991 126.365C188.411 126.215 188.876 126.14 189.386 126.14C190.466 126.14 191.321 126.395 191.951 126.905C192.591 127.405 192.966 128.135 193.076 129.095H191.906C191.776 128.415 191.511 127.93 191.111 127.64C190.711 127.34 190.136 127.19 189.386 127.19C188.646 127.19 188.086 127.355 187.706 127.685C187.336 128.005 187.151 128.42 187.151 128.93C187.151 129.19 187.181 129.425 187.241 129.635C187.311 129.835 187.436 130.01 187.616 130.16C187.806 130.31 188.066 130.445 188.396 130.565C188.736 130.675 189.181 130.77 189.731 130.85C190.331 130.94 190.856 131.06 191.306 131.21C191.756 131.36 192.136 131.555 192.446 131.795C192.756 132.035 192.986 132.33 193.136 132.68C193.296 133.03 193.376 133.46 193.376 133.97C193.376 134.42 193.281 134.84 193.091 135.23C192.911 135.61 192.656 135.945 192.326 136.235C191.996 136.515 191.601 136.735 191.141 136.895C190.691 137.055 190.201 137.135 189.671 137.135Z" fill="black"/>
<path fill-rule="evenodd" clip-rule="evenodd" d="M80.9742 86L78.5708 93.3134H71L77.2489 97.9788L74.8455 105.418L80.9742 100.753L87.2231 105.418L84.8197 97.9788L90.9485 93.3134H83.3777L80.9742 86Z" fill="black"/>
<path fill-rule="evenodd" clip-rule="evenodd" d="M107.294 86L104.89 93.3134H97.1992L103.328 97.9788L101.045 105.418L107.294 100.753L113.422 105.418L111.019 97.9788L117.268 93.3134H109.577L107.294 86Z" fill="black"/>
<path fill-rule="evenodd" clip-rule="evenodd" d="M134.572 86L132.169 93.3134H124.598L130.847 97.9788L128.443 105.418L134.572 100.753L140.821 105.418L138.417 97.9788L144.546 93.3134H136.975L134.572 86Z" fill="black"/>
<path fill-rule="evenodd" clip-rule="evenodd" d="M161.97 86L159.687 93.3134H151.996L158.125 97.9788L155.721 105.418L161.97 100.753L168.099 105.418L165.816 97.9788L172.065 93.3134H164.374L161.97 86Z" fill="black"/>
<path fill-rule="evenodd" clip-rule="evenodd" d="M188.166 86L185.762 93.3134H178.191L184.32 97.9788L182.037 105.418L188.166 100.753L194.415 105.418L192.011 97.9788L198.14 93.3134H190.449L188.166 86Z" fill="black"/>
<g clip-path="url(#clip1_1_305)">
<path fill-rule="evenodd" clip-rule="evenodd" d="M311.48 55.3601C311.744 55.2282 312.008 55.4921 312.14 55.7559C312.14 55.7559 312.536 57.339 313.063 57.339C313.063 57.6029 313.063 57.8667 312.799 57.9987C311.876 58.3944 309.897 58.9221 307.786 58.9221C301.454 58.9221 296.968 54.4367 296.968 48.3681C296.968 41.9037 301.718 37.814 308.182 37.814C309.106 37.814 310.952 38.0778 312.14 38.3417C312.272 38.4736 312.536 38.7374 312.536 39.0013V43.3549C312.536 43.6187 312.272 43.8826 312.008 43.8826H310.821C310.557 43.8826 310.425 43.7506 310.293 43.4868L309.897 41.7717C309.633 40.8483 308.842 40.4525 307.259 40.4525C302.773 40.4525 301.322 44.0145 301.322 47.7084C301.322 51.9301 303.301 55.8878 308.314 55.8878C309.369 56.0198 310.821 55.7559 311.48 55.3601ZM321.507 56.2836C323.09 56.2836 324.145 55.0963 324.145 53.909L324.013 51.5343C324.013 51.4024 324.013 51.2704 323.749 51.2704C320.319 51.2704 319.132 52.4578 319.132 54.1728C319 55.3601 320.055 56.2836 321.507 56.2836ZM329.95 56.5475C329.95 56.2836 329.686 56.1517 329.422 56.1517C329.158 56.2836 328.894 56.2836 328.631 56.2836C327.971 56.2836 327.839 55.8878 327.839 55.3601V48.3681C327.839 44.2783 325.332 42.6952 321.639 42.6952C319.792 42.6952 317.813 43.091 316.493 43.6187C316.23 43.7506 316.098 44.0145 316.23 44.2783L316.625 46.1253C316.757 46.5211 317.021 46.5211 317.285 46.3892C318.208 45.8615 319.396 45.5976 320.583 45.5976C322.562 45.5976 324.013 46.3892 324.013 48.1042V48.6319C324.013 48.8958 323.881 49.1596 323.749 49.1596C319.132 49.1596 315.306 50.6108 315.306 54.8324C315.306 57.2071 317.021 59.0541 319.792 59.0541C322.298 59.0541 323.485 57.9987 324.409 56.9433H324.541C324.673 58.1306 325.332 59.0541 327.047 59.0541C327.971 59.0541 329.554 58.7902 329.818 58.5264C330.082 58.3944 330.082 58.2625 330.082 57.9987L329.95 56.5475ZM340.108 45.7295C338.525 45.7295 337.338 46.653 337.338 48.1042V54.1728C337.338 55.4921 338.261 56.2836 339.844 56.2836C342.747 56.2836 343.802 53.3812 343.802 50.7427C343.67 48.2361 342.615 45.7295 340.108 45.7295ZM339.712 64.463C339.976 64.463 340.24 64.1992 340.24 63.9353V63.1438C340.24 62.8799 340.108 62.6161 339.844 62.6161L337.997 62.3522C337.733 62.2203 337.338 61.9564 337.338 61.4287V58.1306C337.47 58.1306 337.733 58.1306 337.997 58.1306C338.393 58.1306 338.657 58.2625 339.053 58.2625C344.858 58.2625 347.76 54.7005 347.76 49.5554C347.76 45.3338 345.253 42.4314 341.691 42.4314C339.317 42.4314 337.997 43.6187 336.942 44.806H336.81L336.546 43.3549C336.546 43.091 336.282 42.6952 335.887 42.8272L331.005 43.3549C330.741 43.3549 330.478 43.6187 330.478 43.8826V44.6741C330.478 44.938 330.609 45.0699 330.873 45.2018L332.325 45.4657C332.852 45.5976 332.984 46.1253 332.984 46.3892V61.8245C332.984 62.4842 332.72 62.748 332.325 62.748L331.137 63.1438C330.873 63.2757 330.741 63.4076 330.741 63.6715V64.463C330.741 64.7269 331.005 64.9907 331.269 64.9907L339.712 64.463ZM359.501 55.7559C359.897 55.7559 360.161 55.8878 360.161 56.1517L360.689 57.7348C360.689 58.1306 360.689 58.2625 360.425 58.3944C359.501 58.9221 357.786 59.186 356.599 59.186C353.565 59.186 351.454 57.471 351.454 54.4367V46.5211C351.454 46.2572 351.322 46.1253 351.058 46.1253H348.947C348.683 46.1253 348.683 45.9934 348.683 45.7295L348.815 44.0145C348.815 44.0145 348.947 43.7506 349.079 43.7506H350.794C351.19 43.7506 351.19 43.4868 351.19 43.2229V41.244C351.19 40.8483 351.322 40.5844 351.718 40.4525L354.62 39.529C355.016 39.3971 355.148 39.6609 355.148 40.0567V43.2229C355.148 43.3549 355.28 43.6187 355.544 43.6187H359.369C359.501 43.6187 359.633 43.7506 359.633 43.8826V45.7295C359.633 45.7295 359.501 45.9934 359.369 45.9934H355.544C355.28 45.9934 355.016 46.1253 355.016 46.3892V53.5132C355.016 55.2282 355.939 56.2836 357.654 56.2836C358.182 56.1517 358.842 56.0198 359.501 55.7559ZM371.111 47.1807C371.111 49.2915 369 49.9512 367.021 49.9512C366.493 49.9512 366.098 49.9512 365.834 49.8192C365.57 49.8192 365.438 49.6873 365.438 49.4235C365.306 47.4446 366.361 44.806 368.736 44.806C370.187 44.806 371.111 45.8615 371.111 47.1807ZM373.749 55.2282C374.013 54.9644 374.277 55.2282 374.409 55.4921L374.541 57.0752C374.673 57.339 374.541 57.6029 374.277 57.7348C373.09 58.5264 371.243 58.9221 369.528 58.9221C364.251 58.9221 361.48 55.624 361.48 50.7427C361.48 46.1253 365.042 42.6952 369.396 42.6952C372.298 42.6952 375.201 44.2783 375.201 47.3126C375.201 50.8747 371.507 52.1939 368.34 52.1939C367.945 52.1939 367.549 52.1939 367.153 52.1939C366.757 52.1939 366.493 52.1939 366.23 52.1939C365.966 52.1939 365.834 52.3258 365.834 52.5897C366.098 54.9644 368.472 56.4155 370.451 56.4155C371.902 56.4155 372.958 55.8878 373.749 55.4921C373.749 55.2282 373.749 55.2282 373.749 55.2282ZM385.623 58.6583C385.887 58.6583 386.15 58.3944 386.15 58.1306V57.339C386.15 57.0752 386.018 56.9433 385.755 56.8113L383.908 56.5475C383.644 56.5475 383.248 56.1517 383.248 55.624V48.7638C383.248 47.1807 384.567 46.2572 386.018 46.2572C386.678 46.2572 387.338 46.3892 387.865 46.5211C388.129 46.653 388.525 46.3892 388.525 46.2572L389.185 43.4868C389.317 43.091 389.185 42.8272 388.921 42.8272C388.525 42.5633 387.997 42.5633 387.602 42.5633C385.623 42.5633 384.303 43.8826 383.116 45.4657H382.984L382.72 43.3549C382.72 42.9591 382.456 42.6952 382.193 42.6952L377.311 43.3549C377.047 43.3549 376.784 43.6187 376.784 43.8826V44.6741C376.784 44.938 376.916 45.0699 377.179 45.2018L378.631 45.4657C379.158 45.5976 379.29 46.1253 379.29 46.3892V55.8878C379.29 56.5475 379.026 56.8113 378.631 56.8113L377.311 57.0752C377.047 57.2071 376.916 57.339 376.916 57.6029V58.3944C376.916 58.6583 377.179 58.9221 377.443 58.9221H385.623V58.6583ZM399.475 58.1306C399.475 58.3944 399.211 58.6583 398.947 58.6583H390.768C390.504 58.6583 390.24 58.3944 390.24 58.1306V57.339C390.24 57.0752 390.372 56.9433 390.636 56.8113L391.955 56.5475C392.351 56.5475 392.615 56.1517 392.615 55.624V46.1253C392.615 45.7295 392.483 45.3338 391.955 45.2018L390.504 44.938C390.24 44.806 390.108 44.6741 390.108 44.4103V43.6187C390.108 43.3549 390.372 43.091 390.636 43.091L395.517 42.4314C395.781 42.4314 396.045 42.6952 396.045 43.091L396.309 45.4657H396.441C397.628 43.8826 399.079 42.5633 400.926 42.5633C401.322 42.5633 401.85 42.5633 402.245 42.8272C402.509 42.8272 402.641 43.091 402.509 43.4868L401.85 46.2572C401.85 46.3892 401.454 46.653 401.19 46.5211C400.662 46.3892 400.003 46.2572 399.343 46.2572C397.892 46.2572 396.573 47.1807 396.573 48.7638V55.624C396.573 56.2836 396.968 56.5475 397.232 56.5475L399.079 56.8113C399.343 56.9433 399.475 57.0752 399.475 57.339V58.1306V58.1306ZM413.063 53.909C413.063 55.0963 412.14 56.2836 410.425 56.2836C409.106 56.2836 407.918 55.3601 407.918 54.0409C407.918 52.3258 409.106 51.1385 412.536 51.1385C412.799 51.1385 412.799 51.2704 412.799 51.4024L413.063 53.909ZM418.34 56.1517C418.604 56.1517 418.868 56.2836 418.868 56.5475L419.132 58.1306C419.132 58.3944 419.132 58.5264 418.868 58.6583C418.472 58.9221 417.021 59.186 416.098 59.186C414.514 59.186 413.723 58.3944 413.591 57.0752H413.459C412.536 57.9987 411.216 59.186 408.842 59.186C406.071 59.186 404.356 57.339 404.356 54.9644C404.356 50.7427 408.182 49.2915 412.799 49.2915C412.931 49.2915 413.063 49.0277 413.063 48.7638V48.1042C413.063 46.2572 411.612 45.5976 409.633 45.5976C408.446 45.5976 407.127 45.9934 406.335 46.3892C406.071 46.5211 405.807 46.5211 405.675 46.1253L405.28 44.2783C405.148 44.0145 405.28 43.7506 405.544 43.6187C406.863 42.9591 408.842 42.6952 410.689 42.6952C414.383 42.6952 416.889 44.2783 416.889 48.3681V55.3601C416.889 56.0198 417.153 56.2836 417.813 56.2836C417.813 56.2836 418.077 56.2836 418.34 56.1517Z" fill="black"/>
<path fill-rule="evenodd" clip-rule="evenodd" d="M275.069 47.4445H269.792C269.66 47.4445 269.528 47.3126 269.66 47.3126C269.528 47.3126 269.528 47.1807 269.528 47.0488L269.66 46.3891C269.792 46.1253 269.792 45.9933 269.792 45.9933C269.792 45.8614 269.923 45.7295 269.923 45.5976C269.923 45.3337 270.055 45.0699 270.187 44.806C272.298 37.0224 279.158 30.9538 279.818 30.2941C280.214 30.1622 280.346 30.1622 280.609 30.2941C287.865 36.7585 290.636 43.2229 290.9 46.7849V47.1807C290.9 47.3126 290.768 47.5765 290.504 47.5765H285.095C284.963 47.5765 284.699 47.5765 284.699 47.3126C284.172 45.0699 282.193 43.6187 280.082 43.6187C277.839 43.6187 275.992 45.2018 275.464 47.3126C275.332 47.3126 275.332 47.4445 275.069 47.4445ZM284.831 49.5553H290.24C290.24 49.5553 290.504 49.5553 290.24 49.6873C290.372 49.6873 290.372 49.8192 290.372 49.9511L290.24 50.6108C290.108 50.7427 290.108 50.8746 290.108 50.8746C290.108 51.0065 289.976 51.1385 289.976 51.2704C289.976 51.5342 289.844 51.7981 289.712 52.0619C287.47 59.8456 280.609 66.0461 279.95 66.7057C279.686 66.8377 279.554 66.8377 279.29 66.7057C272.166 60.2414 269.264 53.777 269 50.215V49.8192C269 49.6873 269.132 49.4234 269.396 49.4234H274.805C274.937 49.4234 275.201 49.4234 275.201 49.6873C275.728 51.93 277.707 53.3812 279.818 53.3812C282.061 53.3812 283.908 51.7981 284.435 49.6873C284.435 49.6873 284.567 49.5553 284.831 49.5553Z" fill="black"/>
</g>
<path d="M270.44 127.275H271.745V132.135H277.385V127.275H278.69V138H277.385V133.23H271.745V138H270.44V127.275ZM282.398 127.275H283.703V138H282.398V127.275ZM292.074 138.135C291.244 138.135 290.509 138 289.869 137.73C289.229 137.46 288.684 137.085 288.234 136.605C287.794 136.115 287.459 135.54 287.229 134.88C286.999 134.21 286.884 133.485 286.884 132.705V132.585C286.884 131.805 287.009 131.08 287.259 130.41C287.509 129.74 287.864 129.16 288.324 128.67C288.784 128.18 289.329 127.8 289.959 127.53C290.599 127.25 291.304 127.11 292.074 127.11C292.604 127.11 293.114 127.175 293.604 127.305C294.094 127.435 294.534 127.64 294.924 127.92C295.324 128.19 295.654 128.54 295.914 128.97C296.184 129.4 296.359 129.915 296.439 130.515H295.134C294.984 129.665 294.634 129.06 294.084 128.7C293.544 128.33 292.884 128.145 292.104 128.145C291.484 128.145 290.934 128.255 290.454 128.475C289.974 128.685 289.569 128.985 289.239 129.375C288.909 129.765 288.659 130.23 288.489 130.77C288.319 131.31 288.234 131.91 288.234 132.57V132.69C288.234 133.35 288.314 133.955 288.474 134.505C288.644 135.045 288.889 135.505 289.209 135.885C289.529 136.265 289.929 136.56 290.409 136.77C290.889 136.98 291.444 137.085 292.074 137.085C292.654 137.085 293.154 136.995 293.574 136.815C293.994 136.635 294.339 136.395 294.609 136.095C294.889 135.785 295.094 135.425 295.224 135.015C295.364 134.595 295.439 134.145 295.449 133.665H292.314V132.585H296.724V133.38C296.724 134.16 296.609 134.845 296.379 135.435C296.159 136.025 295.844 136.52 295.434 136.92C295.024 137.32 294.534 137.625 293.964 137.835C293.394 138.035 292.764 138.135 292.074 138.135ZM299.848 127.275H301.153V132.135H306.793V127.275H308.098V138H306.793V133.23H301.153V138H299.848V127.275ZM311.731 127.275H317.986V128.34H313.036V131.985H317.026V133.05H313.036V136.935H318.256V138H311.731V127.275ZM324.618 138.135C323.898 138.135 323.288 138.045 322.788 137.865C322.298 137.675 321.893 137.425 321.573 137.115C321.253 136.805 321.008 136.445 320.838 136.035C320.678 135.625 320.573 135.19 320.523 134.73H321.783C321.823 135.05 321.893 135.355 321.993 135.645C322.093 135.925 322.248 136.175 322.458 136.395C322.668 136.605 322.943 136.775 323.283 136.905C323.633 137.025 324.078 137.085 324.618 137.085C324.958 137.085 325.278 137.04 325.578 136.95C325.878 136.85 326.138 136.71 326.358 136.53C326.578 136.35 326.748 136.135 326.868 135.885C326.998 135.635 327.063 135.36 327.063 135.06C327.063 134.76 327.023 134.5 326.943 134.28C326.863 134.05 326.723 133.855 326.523 133.695C326.333 133.535 326.068 133.4 325.728 133.29C325.398 133.18 324.978 133.085 324.468 133.005C323.908 132.915 323.403 132.8 322.953 132.66C322.513 132.52 322.138 132.34 321.828 132.12C321.518 131.89 321.283 131.61 321.123 131.28C320.963 130.94 320.883 130.53 320.883 130.05C320.883 129.64 320.968 129.26 321.138 128.91C321.308 128.55 321.543 128.24 321.843 127.98C322.153 127.72 322.518 127.515 322.938 127.365C323.358 127.215 323.823 127.14 324.333 127.14C325.413 127.14 326.268 127.395 326.898 127.905C327.538 128.405 327.913 129.135 328.023 130.095H326.853C326.723 129.415 326.458 128.93 326.058 128.64C325.658 128.34 325.083 128.19 324.333 128.19C323.593 128.19 323.033 128.355 322.653 128.685C322.283 129.005 322.098 129.42 322.098 129.93C322.098 130.19 322.128 130.425 322.188 130.635C322.258 130.835 322.383 131.01 322.563 131.16C322.753 131.31 323.013 131.445 323.343 131.565C323.683 131.675 324.128 131.77 324.678 131.85C325.278 131.94 325.803 132.06 326.253 132.21C326.703 132.36 327.083 132.555 327.393 132.795C327.703 133.035 327.933 133.33 328.083 133.68C328.243 134.03 328.323 134.46 328.323 134.97C328.323 135.42 328.228 135.84 328.038 136.23C327.858 136.61 327.603 136.945 327.273 137.235C326.943 137.515 326.548 137.735 326.088 137.895C325.638 138.055 325.148 138.135 324.618 138.135ZM333.307 128.34H330.187V127.275H337.732V128.34H334.612V138H333.307V128.34ZM345.17 127.275H348.395C348.905 127.275 349.385 127.33 349.835 127.44C350.295 127.55 350.695 127.725 351.035 127.965C351.375 128.205 351.645 128.515 351.845 128.895C352.045 129.265 352.145 129.72 352.145 130.26V130.32C352.145 130.76 352.075 131.15 351.935 131.49C351.795 131.82 351.605 132.105 351.365 132.345C351.125 132.575 350.845 132.765 350.525 132.915C350.205 133.065 349.86 133.175 349.49 133.245L352.775 138H351.32L348.125 133.335H346.475V138H345.17V127.275ZM348.485 132.3C349.255 132.3 349.84 132.135 350.24 131.805C350.64 131.475 350.84 130.98 350.84 130.32V130.26C350.84 129.9 350.785 129.595 350.675 129.345C350.565 129.095 350.41 128.895 350.21 128.745C350.01 128.595 349.76 128.49 349.46 128.43C349.17 128.36 348.845 128.325 348.485 128.325H346.475V132.3H348.485ZM358.395 127.275H360.105L363.735 138H362.445L361.395 134.91H356.97L355.935 138H354.705L358.395 127.275ZM357.33 133.875H361.05L359.19 128.355L357.33 133.875ZM367.699 128.34H364.579V127.275H372.124V128.34H369.004V138H367.699V128.34ZM374.842 127.275H381.097V128.34H376.147V131.985H380.137V133.05H376.147V136.935H381.367V138H374.842V127.275ZM387.039 136.935C387.729 136.935 388.329 136.835 388.839 136.635C389.359 136.435 389.789 136.15 390.129 135.78C390.479 135.41 390.739 134.965 390.909 134.445C391.089 133.915 391.179 133.32 391.179 132.66V132.54C391.179 131.92 391.099 131.355 390.939 130.845C390.789 130.325 390.544 129.88 390.204 129.51C389.874 129.13 389.444 128.84 388.914 128.64C388.394 128.43 387.764 128.325 387.024 128.325H385.569V136.935H387.039ZM384.264 127.275H387.099C388.019 127.275 388.819 127.41 389.499 127.68C390.179 127.95 390.744 128.32 391.194 128.79C391.644 129.26 391.979 129.815 392.199 130.455C392.419 131.095 392.529 131.79 392.529 132.54V132.675C392.529 133.415 392.419 134.11 392.199 134.76C391.989 135.41 391.659 135.975 391.209 136.455C390.759 136.935 390.189 137.315 389.499 137.595C388.819 137.865 388.009 138 387.069 138H384.264V127.275Z" fill="black"/>
<path fill-rule="evenodd" clip-rule="evenodd" d="M278.974 87L276.571 94.3134H269L275.249 98.9788L272.845 106.418L278.974 101.753L285.223 106.418L282.82 98.9788L288.948 94.3134H281.378L278.974 87Z" fill="black"/>
<path fill-rule="evenodd" clip-rule="evenodd" d="M305.294 87L302.89 94.3134H295.199L301.328 98.9788L299.045 106.418L305.294 101.753L311.422 106.418L309.019 98.9788L315.268 94.3134H307.577L305.294 87Z" fill="black"/>
<path fill-rule="evenodd" clip-rule="evenodd" d="M332.572 87L330.169 94.3134H322.598L328.847 98.9788L326.443 106.418L332.572 101.753L338.821 106.418L336.417 98.9788L342.546 94.3134H334.975L332.572 87Z" fill="black"/>
<path fill-rule="evenodd" clip-rule="evenodd" d="M359.97 87L357.687 94.3134H349.996L356.125 98.9788L353.721 106.418L359.97 101.753L366.099 106.418L363.816 98.9788L370.065 94.3134H362.374L359.97 87Z" fill="black"/>
<path fill-rule="evenodd" clip-rule="evenodd" d="M386.166 87L383.762 94.3134H376.191L382.32 98.9788L380.037 106.418L386.166 101.753L392.415 106.418L390.011 98.9788L396.14 94.3134H388.449L386.166 87Z" fill="black"/>
<defs>
<clipPath id="clip0_1_305">
<rect width="128" height="36" fill="white" transform="translate(71 30)"/>
</clipPath>
<clipPath id="clip1_1_305">
<rect width="150" height="37" fill="white" transform="translate(269 30)"/>
</clipPath>
</defs>
</svg>
